<svg viewBox="-330 -3 810 156" xmlns="http://www.w3.org/2000/svg">
<defs>
  <!-- NEW: Gray gradient for the outer border -->
  <linearGradient id="outerGrayGradient" x1="0%" y1="0%" x2="0%" y2="100%">
    <stop offset="0%" style="stop-color:#BBBBBB; stop-opacity:1" />
    <stop offset="100%" style="stop-color:#BBBBBB; stop-opacity:1" />
  </linearGradient>
  <linearGradient id="frameStrokeGradient" x1="0%" y1="0%" x2="0%" y2="100%">
    <stop offset="0%" style="stop-color:#fe8381; stop-opacity:1" />
    <stop offset="15%" style="stop-color:#fe8381; stop-opacity:1" />
    <stop offset="50%" style="stop-color:#fe8381; stop-opacity:1" />
    <stop offset="85%" style="stop-color:#fe8381; stop-opacity:1" />
    <stop offset="100%" style="stop-color:#fe8381; stop-opacity:1" />
  </linearGradient>
  <linearGradient id="innerEdgeGradient" x1="0%" y1="0%" x2="0%" y2="100%">
    <stop offset="0%" style="stop-color:#D0D8E0; stop-opacity:0.3" />
    <stop offset="20%" style="stop-color:#E8EFF5; stop-opacity:0.7" />
    <stop offset="80%" style="stop-color:#F5F8FB; stop-opacity:0.8" />
    <stop offset="100%" style="stop-color:#FEFFFF; stop-opacity:1" />
  </linearGradient>
  <radialGradient id="innerBackgroundGradient" cx="50%" cy="45%" r="75%" fx="50%" fy="30%">
    <stop offset="0%" style="stop-color:#FFFFFF; stop-opacity:1" />
    <stop offset="85%" style="stop-color:#FEFFFF; stop-opacity:1" />
    <stop offset="100%" style="stop-color:#FAFDFF; stop-opacity:1" />
  </radialGradient>
  <linearGradient id="orangeRectGradient" x1="0%" y1="0%" x2="0%" y2="100%">
      <stop offset="0%" style="stop-color:#FFF2D0; stop-opacity:0.95" />
      <stop offset="15%" style="stop-color:#FFB74D; stop-opacity:1" />
      <stop offset="40%" style="stop-color:#FFA726; stop-opacity:1" />
      <stop offset="70%" style="stop-color:#FF9800; stop-opacity:1" />
      <stop offset="90%" style="stop-color:#F57C00; stop-opacity:1" />
      <stop offset="100%" style="stop-color:#E65100; stop-opacity:0.95" />
  </linearGradient>
  <linearGradient id="greenRectGradient" x1="0%" y1="0%" x2="0%" y2="100%">
      <stop offset="0%" style="stop-color:#E0F7FA; stop-opacity:0.98" />
      <stop offset="15%" style="stop-color:#A7FFEB; stop-opacity:0.9" />
      <stop offset="40%" style="stop-color:#69F0AE; stop-opacity:0.9" />
      <stop offset="70%" style="stop-color:#00E676; stop-opacity:0.85" />
      <stop offset="90%" style="stop-color:#00C853; stop-opacity:0.85" />
      <stop offset="100%" style="stop-color:#1B5E20; stop-opacity:0.8" />
  </linearGradient>
  <linearGradient id="rectHighlightGradient" x1="0%" y1="0%" x2="0%" y2="100%">
      <stop offset="0%" style="stop-color:white; stop-opacity:0.35" />
      <stop offset="8%" style="stop-color:white; stop-opacity:0.30" />
      <stop offset="25%" style="stop-color:white; stop-opacity:0.15" />
      <stop offset="50%" style="stop-color:white; stop-opacity:0.1" />
      <stop offset="100%" style="stop-color:white; stop-opacity:0.1" />
  </linearGradient>
   <linearGradient id="rectBottomShineGradient" x1="0%" y1="0%" x2="0%" y2="100%">
      <stop offset="0%" style="stop-color:white; stop-opacity:0" />
      <stop offset="70%" style="stop-color:white; stop-opacity:0" />
      <stop offset="85%" style="stop-color:white; stop-opacity:0.4" />
      <stop offset="100%" style="stop-color:white; stop-opacity:0.6" />
   </linearGradient>
  <linearGradient id="internalReflectionGradient" x1="0%" y1="0%" x2="0%" y2="100%">
      <stop offset="0%" style="stop-color:white; stop-opacity:0.9" />
      <stop offset="35%" style="stop-color:white; stop-opacity:0.5" />
      <stop offset="65%" style="stop-color:white; stop-opacity:0.15" />
      <stop offset="100%" style="stop-color:white; stop-opacity:0" />
  </linearGradient>
  <linearGradient id="roundedEdgeHighlightGradient" x1="0%" y1="0%" x2="100%" y2="100%">
      <stop offset="0%" style="stop-color:white; stop-opacity:1.0" />
      <stop offset="45%" style="stop-color:white; stop-opacity:0.8" />
      <stop offset="100%" style="stop-color:white; stop-opacity:0" />
  </linearGradient>
  <linearGradient id="roundedEdgeShadowGradient" x1="100%" y1="100%" x2="0%" y2="0%">
      <stop offset="0%" style="stop-color:#000000; stop-opacity:0.15" />
      <stop offset="40%" style="stop-color:#000000; stop-opacity:0.1" />
      <stop offset="100%" style="stop-color:#000000; stop-opacity:0" />
  </linearGradient>
  <linearGradient id="rectEdgeGradient" x1="0%" y1="0%" x2="100%" y2="100%">
      <stop offset="0%" stop-color="#000000" stop-opacity="0.08"/>
      <stop offset="100%" stop-color="#000000" stop-opacity="0.25"/>
  </linearGradient>
  <linearGradient id="leftEdgeHighlightGradient_Green" x1="0%" y1="0%" x2="100%" y2="0%">
      <stop offset="0%" style="stop-color:white; stop-opacity:0.95" />
      <stop offset="30%" style="stop-color:white; stop-opacity:0.7" />
      <stop offset="70%" style="stop-color:white; stop-opacity:0.2" />
      <stop offset="100%" style="stop-color:white; stop-opacity:0" />
  </linearGradient>
  <linearGradient id="leftEdgeHighlightGradient_Orange" x1="0%" y1="0%" x2="100%" y2="0%">
      <stop offset="0%" style="stop-color:white; stop-opacity:1.0" />
      <stop offset="30%" style="stop-color:white; stop-opacity:0.8" />
      <stop offset="70%" style="stop-color:white; stop-opacity:0.3" />
      <stop offset="100%" style="stop-color:white; stop-opacity:0" />
  </linearGradient>
  <radialGradient id="cornerGlowGradientOrange" cx="17" cy="40" r="15" gradientUnits="userSpaceOnUse" fx="17" fy="40">
      <stop offset="0%" style="stop-color:white; stop-opacity:1.0"/>
      <stop offset="30%" style="stop-color:white; stop-opacity:0.7"/>
      <stop offset="100%" style="stop-color:white; stop-opacity:0"/>
  </radialGradient>
  <radialGradient id="cornerGlowGradientGreen" cx="64" cy="44" r="15" gradientUnits="userSpaceOnUse" fx="64" fy="44">
      <stop offset="0%" style="stop-color:white; stop-opacity:0.8"/>
      <stop offset="30%" style="stop-color:white; stop-opacity:0.4"/>
      <stop offset="100%" style="stop-color:white; stop-opacity:0"/>
  </radialGradient>
  <filter id="rectDropShadow" x="-20%" y="-20%" width="140%" height="140%">
    <feGaussianBlur in="SourceAlpha" stdDeviation="1.2"/>
    <feOffset dx="1" dy="1.5" result="offsetblur"/>
    <feComponentTransfer>
      <feFuncA type="linear" slope="0.25"/>
    </feComponentTransfer>
    <feMerge>
      <feMergeNode/>
      <feMergeNode in="SourceGraphic"/>
    </feMerge>
  </filter>
  <filter id="reflectionBlur" x="-10%" y="-10%" width="120%" height="120%">
    <feGaussianBlur in="SourceGraphic" stdDeviation="0.4" />
  </filter>
  <filter id="edgeEffectBlur" x="-20%" y="-20%" width="140%" height="140%">
    <feGaussianBlur in="SourceGraphic" stdDeviation="3" />
  </filter>
  <path id="frameCenterline" d=" M 22 6 L 128 6 A 22 22 0 0 0 144 22 L 144 128 A 22 22 0 0 0 128 144 L 22 144 A 22 22 0 0 0 6 128 L 6 22 A 22 22 0 0 0 22 6 Z " fill="none" />
  <path id="newWhiteCenterPath" d=" M 22 6.5 L 128 6.5 A 21.5 21.5 0 0 0 143.5 22 L 143.5 128 A 21.5 21.5 0 0 0 128 143.5 L 22 143.5 A 21.5 21.5 0 0 0 6.5 128 L 6.5 22 A 21.5 21.5 0 0 0 22 6.5 Z "/>
  <rect id="rect1Shape" x="13.5" y="36.5" width="72" height="78" rx="7" ry="7" />
  <rect id="rect2Shape" x="60.5" y="40.5" width="74" height="74" rx="7" ry="7" />
  <clipPath id="clipRect1">
    <use href="#rect1Shape"/>
  </clipPath>
  <clipPath id="clipRect2">
    <use href="#rect2Shape"/>
  </clipPath>
  <path id="internalReflectionShape1" d="M 15 41.5 Q 50.5 44.5 86.5 41.5 L 86.5 36.5 L 15 36.5 Z"/>
  <path id="internalReflectionShape2" d="M 61 45.5 Q 97.5 48.5 134.5 45.5 L 134.5 40.5 L 61 40.5 Z"/>
  <path id="rect1HighlightPath" d="M 18 43.5  A 5 5 0 0 1 23 38.5 L 80 38.5 L 80 43.5 L 23 43.5 A 5 5 0 0 1 18 48.5 Z" />
  <path id="rect1ShadowPath" d="M 83 108 A 5 5 0 0 1 78 113 L 21 113 L 21 108 L 78 108 A 5 5 0 0 1 83 103 Z" />
  <path id="rect2HighlightPath" d="M 64 47.5 A 5 5 0 0 1 69 42.5 L 128 42.5 L 128 47.5 L 69 47.5 A 5 5 0 0 1 64 52.5 Z" />
  <path id="rect2ShadowPath" d="M 131 108 A 5 5 0 0 1 126 113 L 67 113 L 67 108 L 126 108 A 5 5 0 0 1 131 103 Z" />
  <path id="rect1LeftEdgePath" d="M 25 36.5 L 20.5 36.5 A 7 7 0 0 0 13.5 43.5 L 13.5 75.5 L 25 75.5 L 25 36.5 Z" />
  <path id="rect2LeftEdgePath" d="M 72 40.5 L 67.5 40.5 A 7 7 0 0 0 60.5 47.5 L 60.5 79.5 L 72 77.5 L 72 40.5 Z" />
  <path id="rect1TopLeftCornerHighlightPath" d="M 13.5 43.5 A 7 7 0 0 1 20.5 36.5 L 20.5 43.5 Z" />
  <path id="rect2TopLeftCornerHighlightPath" d="M 60.5 47.5 A 7 7 0 0 1 67.5 40.5 L 67.5 47.5 Z" />
</defs>

<!-- TEXT: Improve (Left) -->
<!-- Note: font-size 120 gives a visual capital height roughly 80% of the logo frame height (150 units) -->
<text x="-170" y="80" font-family="Arial, Helvetica, sans-serif" font-size="90" font-weight="" fill="#444444" dominant-baseline="middle" text-anchor="middle">Improve</text>

<!-- LOGO ELEMENTS (unchanged, positioned between approx x=0 and x=150 due to viewBox) -->
<!-- NEW: Added outer edge stroke with gray gradient -->
<use href="#frameCenterline" stroke="url(#outerGrayGradient)" stroke-width="13" stroke-linejoin="round" />
<!-- Existing frame strokes -->
<use href="#frameCenterline" stroke="url(#frameStrokeGradient)" stroke-width="11" stroke-linejoin="round" />
<use href="#frameCenterline" stroke="url(#frameBottomShineGradient)" stroke-width="10" stroke-linejoin="round" />
<!-- Inner background and its edge -->
<use href="#newWhiteCenterPath" fill="url(#innerBackgroundGradient)" stroke="url(#innerEdgeGradient)" stroke-width="1.5" stroke-linejoin="round" />

<!-- Rest of the elements (rectangles etc.) -->
<g filter="url(#rectDropShadow)">
    <g clip-path="url(#clipRect1)">
        <use href="#rect1Shape" fill="url(#orangeRectGradient)" stroke="url(#rectEdgeGradient)" stroke-width="1.2" />
        <use href="#rect1Shape" fill="url(#rectHighlightGradient)" />
        <use href="#rect1Shape" fill="url(#rectBottomShineGradient)" />
        <use href="#internalReflectionShape1" fill="url(#internalReflectionGradient)" filter="url(#reflectionBlur)" />
        <use href="#rect1HighlightPath" fill="url(#roundedEdgeHighlightGradient)" filter="url(#edgeEffectBlur)" opacity="0.85" />
        <use href="#rect1LeftEdgePath" fill="url(#leftEdgeHighlightGradient_Orange)" filter="url(#edgeEffectBlur)" />
        <use href="#rect1TopLeftCornerHighlightPath" fill="url(#cornerGlowGradientOrange)" filter="url(#edgeEffectBlur)" />
        <use href="#rect1ShadowPath" fill="url(#roundedEdgeShadowGradient)" filter="url(#edgeEffectBlur)" />
    </g>
    <g clip-path="url(#clipRect2)">
        <use href="#rect2Shape" fill="url(#greenRectGradient)" stroke="url(#rectEdgeGradient)" stroke-width="1.2" />
        <use href="#rect2Shape" fill="url(#rectHighlightGradient)" />
        <use href="#rect2Shape" fill="url(#rectBottomShineGradient)" />
        <use href="#internalReflectionShape2" fill="url(#internalReflectionGradient)" filter="url(#reflectionBlur)" />
        <use href="#rect2HighlightPath" fill="url(#roundedEdgeHighlightGradient)" filter="url(#edgeEffectBlur)" opacity="0.9" />
        <use href="#rect2LeftEdgePath" fill="url(#leftEdgeHighlightGradient_Green)" filter="url(#edgeEffectBlur)" />
        <use href="#rect2TopLeftCornerHighlightPath" fill="url(#cornerGlowGradientGreen)" filter="url(#edgeEffectBlur)" />
        <use href="#rect2ShadowPath" fill="url(#roundedEdgeShadowGradient)" filter="url(#edgeEffectBlur)" />
    </g>
</g>

<!-- TEXT: ImgSLI (Right) -->
<text x="295" y="80" font-family="Arial, Helvetica, sans-serif" font-size="90" font-weight="" fill="#444444" dominant-baseline="middle" text-anchor="middle">ImgSLI</text>

</svg>